<mxfile host="app.diagrams.net" agent="Mozilla/5.0 (Windows NT 10.0; Win64; x64) AppleWebKit/537.36 (KHTML, like Gecko) Chrome/131.0.0.0 Safari/537.36" version="25.0.3">
  <diagram name="Page-1" id="un0quor75y9vqKlloCvS">
    <mxGraphModel dx="1259" dy="686" grid="1" gridSize="10" guides="1" tooltips="1" connect="1" arrows="1" fold="1" page="1" pageScale="1" pageWidth="850" pageHeight="1100" math="0" shadow="0">
      <root>
        <mxCell id="0" />
        <mxCell id="1" parent="0" />
        <mxCell id="IF0h4WuqyyuylGlH2OUa-4" style="edgeStyle=orthogonalEdgeStyle;rounded=0;orthogonalLoop=1;jettySize=auto;html=1;entryX=0.5;entryY=0;entryDx=0;entryDy=0;" parent="1" source="IF0h4WuqyyuylGlH2OUa-1" target="IF0h4WuqyyuylGlH2OUa-2" edge="1">
          <mxGeometry relative="1" as="geometry" />
        </mxCell>
        <mxCell id="IF0h4WuqyyuylGlH2OUa-8" style="edgeStyle=orthogonalEdgeStyle;rounded=0;orthogonalLoop=1;jettySize=auto;html=1;entryX=0.5;entryY=0;entryDx=0;entryDy=0;" parent="1" source="IF0h4WuqyyuylGlH2OUa-1" target="IF0h4WuqyyuylGlH2OUa-3" edge="1">
          <mxGeometry relative="1" as="geometry" />
        </mxCell>
        <mxCell id="IF0h4WuqyyuylGlH2OUa-1" value="&lt;b&gt;ESC&lt;/b&gt;" style="rounded=1;whiteSpace=wrap;html=1;fillColor=#dae8fc;gradientColor=#7ea6e0;strokeColor=#6c8ebf;" parent="1" vertex="1">
          <mxGeometry x="350" y="90" width="120" height="60" as="geometry" />
        </mxCell>
        <mxCell id="IF0h4WuqyyuylGlH2OUa-6" style="edgeStyle=orthogonalEdgeStyle;rounded=0;orthogonalLoop=1;jettySize=auto;html=1;entryX=0.5;entryY=1;entryDx=0;entryDy=0;" parent="1" source="IF0h4WuqyyuylGlH2OUa-2" target="IF0h4WuqyyuylGlH2OUa-1" edge="1">
          <mxGeometry relative="1" as="geometry" />
        </mxCell>
        <mxCell id="IF0h4WuqyyuylGlH2OUa-2" value="&lt;b&gt;Colon/Command&lt;/b&gt;" style="rounded=1;whiteSpace=wrap;html=1;fillColor=#d5e8d4;gradientColor=#97d077;strokeColor=#82b366;" parent="1" vertex="1">
          <mxGeometry x="80" y="200" width="120" height="60" as="geometry" />
        </mxCell>
        <mxCell id="IF0h4WuqyyuylGlH2OUa-3" value="&lt;b&gt;Insert&lt;/b&gt;" style="rounded=1;whiteSpace=wrap;html=1;fillColor=#f8cecc;gradientColor=#ea6b66;strokeColor=#b85450;" parent="1" vertex="1">
          <mxGeometry x="610" y="200" width="120" height="60" as="geometry" />
        </mxCell>
        <mxCell id="IF0h4WuqyyuylGlH2OUa-5" value="&lt;b&gt;&lt;font style=&quot;font-size: 19px;&quot;&gt;:&lt;/font&gt;&lt;/b&gt;" style="text;html=1;align=center;verticalAlign=middle;resizable=0;points=[];autosize=1;strokeColor=none;fillColor=none;" parent="1" vertex="1">
          <mxGeometry x="310" y="80" width="30" height="40" as="geometry" />
        </mxCell>
        <mxCell id="IF0h4WuqyyuylGlH2OUa-7" value="&lt;b&gt;Esc&lt;/b&gt;" style="text;html=1;align=center;verticalAlign=middle;resizable=0;points=[];autosize=1;strokeColor=none;fillColor=none;" parent="1" vertex="1">
          <mxGeometry x="280" y="230" width="40" height="30" as="geometry" />
        </mxCell>
        <mxCell id="IF0h4WuqyyuylGlH2OUa-9" value="&lt;b&gt;&lt;font style=&quot;font-size: 15px;&quot;&gt;i&lt;/font&gt;&lt;/b&gt;" style="text;html=1;align=center;verticalAlign=middle;resizable=0;points=[];autosize=1;strokeColor=none;fillColor=none;" parent="1" vertex="1">
          <mxGeometry x="490" y="85" width="30" height="30" as="geometry" />
        </mxCell>
        <mxCell id="IF0h4WuqyyuylGlH2OUa-10" style="edgeStyle=orthogonalEdgeStyle;rounded=0;orthogonalLoop=1;jettySize=auto;html=1;entryX=0.621;entryY=1.032;entryDx=0;entryDy=0;entryPerimeter=0;" parent="1" source="IF0h4WuqyyuylGlH2OUa-3" target="IF0h4WuqyyuylGlH2OUa-1" edge="1">
          <mxGeometry relative="1" as="geometry" />
        </mxCell>
        <mxCell id="IF0h4WuqyyuylGlH2OUa-11" value="&lt;b&gt;Esc&lt;/b&gt;" style="text;html=1;align=center;verticalAlign=middle;resizable=0;points=[];autosize=1;strokeColor=none;fillColor=none;" parent="1" vertex="1">
          <mxGeometry x="550" y="200" width="40" height="30" as="geometry" />
        </mxCell>
        <mxCell id="YanqY_yja2Sn88KWRIkd-1" value="" style="shape=image;html=1;verticalAlign=top;verticalLabelPosition=bottom;labelBackgroundColor=#ffffff;imageAspect=0;aspect=fixed;image=https://cdn4.iconfinder.com/data/icons/social-media-2182/512/windows__2__os__pc__computer__social__media__social_media__-128.png" vertex="1" parent="1">
          <mxGeometry x="76" y="590" width="128" height="128" as="geometry" />
        </mxCell>
        <mxCell id="YanqY_yja2Sn88KWRIkd-4" style="edgeStyle=orthogonalEdgeStyle;rounded=0;orthogonalLoop=1;jettySize=auto;html=1;" edge="1" parent="1" source="YanqY_yja2Sn88KWRIkd-2" target="YanqY_yja2Sn88KWRIkd-1">
          <mxGeometry relative="1" as="geometry" />
        </mxCell>
        <mxCell id="YanqY_yja2Sn88KWRIkd-2" value="" style="whiteSpace=wrap;html=1;shape=mxgraph.basic.cloud_callout" vertex="1" parent="1">
          <mxGeometry x="400" y="420" width="90" height="60" as="geometry" />
        </mxCell>
        <mxCell id="YanqY_yja2Sn88KWRIkd-3" style="edgeStyle=orthogonalEdgeStyle;rounded=0;orthogonalLoop=1;jettySize=auto;html=1;entryX=0.393;entryY=0.623;entryDx=0;entryDy=0;entryPerimeter=0;" edge="1" parent="1" source="YanqY_yja2Sn88KWRIkd-1" target="YanqY_yja2Sn88KWRIkd-2">
          <mxGeometry relative="1" as="geometry" />
        </mxCell>
        <mxCell id="YanqY_yja2Sn88KWRIkd-5" value="&lt;b&gt;install dependencies&lt;/b&gt;" style="text;html=1;align=center;verticalAlign=middle;resizable=0;points=[];autosize=1;strokeColor=none;fillColor=none;" vertex="1" parent="1">
          <mxGeometry x="200" y="468" width="140" height="30" as="geometry" />
        </mxCell>
        <mxCell id="YanqY_yja2Sn88KWRIkd-6" value="" style="image;sketch=0;aspect=fixed;html=1;points=[];align=center;fontSize=12;image=img/lib/mscae/VM_Linux.svg;" vertex="1" parent="1">
          <mxGeometry x="295" y="800" width="130.43" height="120" as="geometry" />
        </mxCell>
        <mxCell id="YanqY_yja2Sn88KWRIkd-8" value="&lt;b&gt;/etc/yum.repos.d&lt;/b&gt;" style="text;html=1;align=center;verticalAlign=middle;resizable=0;points=[];autosize=1;strokeColor=none;fillColor=none;" vertex="1" parent="1">
          <mxGeometry x="450" y="870" width="120" height="30" as="geometry" />
        </mxCell>
        <mxCell id="YanqY_yja2Sn88KWRIkd-9" value="" style="whiteSpace=wrap;html=1;shape=mxgraph.basic.cloud_callout" vertex="1" parent="1">
          <mxGeometry x="590" y="658" width="90" height="60" as="geometry" />
        </mxCell>
        <mxCell id="YanqY_yja2Sn88KWRIkd-10" style="edgeStyle=orthogonalEdgeStyle;rounded=0;orthogonalLoop=1;jettySize=auto;html=1;entryX=0.5;entryY=0.74;entryDx=0;entryDy=0;entryPerimeter=0;" edge="1" parent="1" source="YanqY_yja2Sn88KWRIkd-6" target="YanqY_yja2Sn88KWRIkd-9">
          <mxGeometry relative="1" as="geometry" />
        </mxCell>
        <mxCell id="YanqY_yja2Sn88KWRIkd-11" style="edgeStyle=orthogonalEdgeStyle;rounded=0;orthogonalLoop=1;jettySize=auto;html=1;entryX=0.867;entryY=-0.037;entryDx=0;entryDy=0;entryPerimeter=0;" edge="1" parent="1" source="YanqY_yja2Sn88KWRIkd-9" target="YanqY_yja2Sn88KWRIkd-6">
          <mxGeometry relative="1" as="geometry" />
        </mxCell>
        <mxCell id="YanqY_yja2Sn88KWRIkd-12" value="" style="whiteSpace=wrap;html=1;aspect=fixed;" vertex="1" parent="1">
          <mxGeometry x="400" y="1010" width="270" height="270" as="geometry" />
        </mxCell>
        <mxCell id="YanqY_yja2Sn88KWRIkd-13" value="&lt;b&gt;SSH&lt;/b&gt;" style="rounded=0;whiteSpace=wrap;html=1;" vertex="1" parent="1">
          <mxGeometry x="430" y="1040" width="120" height="60" as="geometry" />
        </mxCell>
      </root>
    </mxGraphModel>
  </diagram>
</mxfile>
